<?xml version="1.0" encoding="UTF-8"?>
<svg xmlns="http://www.w3.org/2000/svg" xmlns:xlink="http://www.w3.org/1999/xlink" width="78px" height="78px" viewBox="0 0 78 78" version="1.1">
<g id="surface1">
<path style=" stroke:none;fill-rule:evenodd;fill:rgb(20%,20%,20%);fill-opacity:1;" d="M 40.785156 4.59375 L 39 2.4375 L 37.222656 4.59375 L 39 6.875 Z M 50.945312 11.132812 L 49.675781 9.597656 L 48.414062 11.132812 L 49.675781 12.632812 Z M 48.78125 26.304688 C 49.722656 26.019531 51.367188 25.992188 52.507812 26.992188 C 52.507812 25.921875 51.582031 24.976562 51.265625 24.855469 C 50.839844 24.933594 49.398438 25.550781 48.78125 26.304688 Z M 61.507812 15.691406 C 61.507812 13.285156 57.644531 13.296875 57.765625 13.671875 C 58.429688 15.8125 57.15625 18.484375 53.511719 18.660156 C 53.480469 18.625 53.5 18.140625 53.5 18.140625 C 56.558594 18.140625 57.960938 14.859375 55.546875 12.632812 C 56.5 9.667969 57.808594 11.050781 59.089844 12.410156 C 59.558594 12.90625 60.023438 13.394531 60.460938 13.671875 C 60.824219 13.902344 61.4375 13.988281 62.0625 14.074219 C 63.046875 14.210938 64.0625 14.359375 64.179688 15.070312 C 64.296875 15.703125 63.925781 16.097656 63.503906 16.542969 C 62.824219 17.246094 62.015625 18.097656 62.824219 20.3125 C 62.164062 19.8125 59.699219 18.40625 60.296875 21.09375 C 60.035156 21.09375 59.199219 20.523438 59.199219 19.742188 C 59.199219 18.898438 59.78125 18.28125 60.367188 17.679688 C 60.9375 17.082031 61.507812 16.492188 61.507812 15.691406 Z M 25.542969 26.996094 C 26.6875 25.992188 28.328125 26.019531 29.269531 26.3125 C 28.652344 25.554688 27.210938 24.933594 26.792969 24.855469 C 26.46875 24.976562 25.542969 25.921875 25.542969 26.996094 Z M 55.472656 25.371094 C 55.390625 25.105469 54.976562 24.222656 53.675781 24.027344 C 48.679688 23.277344 44.320312 28.894531 44.65625 33.4375 C 43.074219 32.644531 41.335938 32.207031 39.570312 32.164062 C 40.480469 28.324219 42.300781 25.25 44.273438 23.535156 C 42.808594 22.84375 41.265625 20.980469 41.355469 19.8125 C 43.222656 20.484375 45.804688 20.476562 48.300781 20.464844 C 52.113281 20.453125 55.707031 20.4375 56.164062 22.863281 C 56.324219 23.707031 55.910156 24.996094 55.472656 25.371094 Z M 33.421875 33.617188 C 34.996094 32.761719 36.734375 32.273438 38.523438 32.175781 C 37.617188 28.328125 35.792969 25.25 33.8125 23.535156 C 35.285156 22.84375 36.828125 20.980469 36.734375 19.8125 C 34.875 20.484375 32.285156 20.472656 29.789062 20.464844 C 25.980469 20.453125 22.382812 20.4375 21.929688 22.863281 C 21.773438 23.707031 22.179688 24.996094 22.621094 25.371094 C 22.699219 25.105469 23.113281 24.222656 24.417969 24.027344 C 29.472656 23.265625 33.882812 29.039062 33.421875 33.617188 Z M 59.609375 59.1875 L 61.984375 57.324219 C 63.351562 58.132812 64.207031 59.609375 64.007812 61.253906 C 63.773438 63.132812 62.117188 64.65625 60.085938 64.855469 C 58.296875 65.023438 56.710938 64.207031 55.851562 62.925781 C 54.515625 61.597656 51.117188 60.609375 48.363281 60.609375 C 47.9375 60.609375 47.734375 60.246094 47.878906 59.898438 C 48.984375 57.257812 46.617188 55.339844 44.160156 56.898438 C 43.09375 57.578125 42.003906 58.914062 41.183594 61.148438 C 45.207031 62.117188 50.265625 64.789062 51.289062 67.703125 C 51.683594 68.835938 50.382812 70.371094 48.800781 70.679688 C 48.789062 70.679688 48.773438 70.679688 48.757812 70.679688 C 48.75 70.675781 48.742188 70.675781 48.738281 70.675781 C 48.730469 70.667969 48.726562 70.667969 48.71875 70.664062 C 48.691406 70.648438 48.679688 70.625 48.671875 70.597656 C 47.847656 66.238281 43.144531 62.996094 40.695312 62.441406 C 40.605469 62.675781 40.601562 62.691406 40.5625 62.796875 L 40.492188 62.996094 C 43.15625 64.246094 45.742188 66.898438 46.476562 70.046875 C 46.820312 71.488281 45.203125 72.78125 43.867188 73.136719 C 43.855469 73.144531 43.835938 73.144531 43.824219 73.144531 C 43.804688 73.136719 43.792969 73.132812 43.78125 73.125 C 43.765625 73.117188 43.753906 73.105469 43.75 73.09375 C 43.742188 73.074219 43.734375 73.0625 43.734375 73.046875 C 43.480469 69.070312 41.71875 65.6875 40.128906 64.148438 C 40.09375 64.449219 40.054688 64.753906 40.035156 65.050781 C 40.035156 65.050781 41.652344 69.546875 41.652344 72.828125 C 41.652344 74.351562 39.382812 75.417969 38.960938 75.5625 C 38.617188 75.410156 36.347656 74.351562 36.347656 72.828125 C 36.347656 69.546875 37.964844 65.050781 37.964844 65.050781 C 37.945312 64.753906 37.90625 64.449219 37.871094 64.148438 C 36.28125 65.6875 34.519531 69.070312 34.265625 73.046875 C 34.265625 73.0625 34.257812 73.082031 34.25 73.09375 C 34.246094 73.105469 34.234375 73.117188 34.21875 73.125 C 34.207031 73.132812 34.195312 73.136719 34.175781 73.144531 C 34.164062 73.144531 34.144531 73.144531 34.132812 73.136719 C 32.796875 72.789062 31.179688 71.488281 31.523438 70.039062 C 32.257812 66.898438 34.847656 64.246094 37.515625 62.996094 L 37.398438 62.695312 L 37.304688 62.441406 C 34.855469 62.996094 30.152344 66.238281 29.328125 70.597656 C 29.328125 70.609375 29.320312 70.625 29.3125 70.636719 C 29.300781 70.648438 29.292969 70.65625 29.28125 70.664062 C 29.269531 70.675781 29.257812 70.675781 29.242188 70.679688 C 29.226562 70.679688 29.210938 70.679688 29.199219 70.679688 C 27.617188 70.371094 26.316406 68.835938 26.710938 67.703125 C 27.734375 64.789062 32.792969 62.117188 36.816406 61.148438 C 35.996094 58.914062 34.914062 57.578125 33.839844 56.898438 C 31.382812 55.339844 29.015625 57.257812 30.121094 59.898438 C 30.265625 60.246094 30.0625 60.609375 29.636719 60.609375 C 27.199219 60.609375 24.265625 61.382812 22.691406 62.480469 C 22.691406 62.480469 24.601562 64.246094 24.628906 64.277344 C 24.769531 64.402344 24.871094 64.574219 24.882812 64.765625 C 24.921875 65.195312 24.570312 65.578125 24.109375 65.601562 C 23.988281 65.609375 23.867188 65.597656 23.753906 65.558594 C 23.644531 65.515625 23.535156 65.457031 23.449219 65.375 L 21.550781 63.617188 C 20.933594 63.972656 20.210938 64.085938 19.519531 63.941406 C 18.453125 63.722656 17.613281 62.898438 17.441406 61.902344 C 17.339844 61.300781 17.480469 60.683594 17.824219 60.175781 C 17.824219 60.175781 10.632812 53.414062 10.574219 53.332031 L 10.234375 53.5 C 9.464844 53.957031 8.550781 53.382812 8.589844 52.984375 C 8.042969 53.480469 5.523438 53.664062 4.773438 51.128906 C 5.289062 51.175781 6.320312 51.148438 6.320312 51.148438 C 6.320312 51.148438 5.085938 49.238281 5.972656 48.191406 C 6.988281 47.246094 9.015625 48.335938 9.015625 48.335938 C 9.015625 48.335938 8.976562 47.328125 8.898438 46.828125 C 11.519531 47.398438 11.5 49.875 11.027344 50.4375 C 11.433594 50.375 12.074219 51.230469 11.65625 52.011719 L 11.597656 52.152344 C 11.730469 52.222656 19.113281 59.179688 19.113281 59.179688 C 19.4375 59.066406 19.773438 59 20.109375 59 C 20.910156 59 21.625 59.324219 22.121094 59.832031 C 24 60.0625 28.007812 59.160156 27.632812 58.59375 C 24.214844 53.816406 25.617188 50.578125 28.324219 49.574219 C 30.304688 53.5625 34.429688 56.304688 39.203125 56.304688 C 43.917969 56.304688 48.007812 53.625 50.011719 49.714844 C 52.488281 50.859375 53.636719 54.011719 50.367188 58.59375 C 49.988281 59.167969 53.886719 60.023438 55.320312 59.828125 C 55.585938 58.78125 56.285156 57.890625 57.238281 57.324219 Z M 61.21875 55.523438 L 59.609375 53.835938 L 58.003906 55.53125 L 59.609375 57.007812 L 61.21875 55.53125 Z M 29.585938 11.132812 L 28.324219 9.597656 L 27.054688 11.132812 L 28.324219 12.632812 Z M 61.679688 35.261719 C 68.53125 36.1875 73.875 33.695312 74.789062 33.230469 C 74.800781 33.222656 74.820312 33.222656 74.839844 33.222656 C 74.851562 33.222656 74.871094 33.222656 74.882812 33.230469 C 74.902344 33.242188 74.914062 33.25 74.929688 33.261719 C 74.933594 33.28125 74.941406 33.292969 74.945312 33.3125 C 75.296875 36.144531 73.492188 38.421875 70.421875 38.929688 C 67.335938 39.4375 60.8125 37.902344 60.8125 37.902344 C 60.683594 38.195312 60.542969 38.484375 60.390625 38.773438 C 64.707031 41.234375 70.765625 40.972656 71.683594 40.917969 C 71.695312 40.917969 71.710938 40.917969 71.722656 40.921875 C 71.742188 40.929688 71.753906 40.9375 71.761719 40.949219 C 71.773438 40.953125 71.78125 40.96875 71.785156 40.980469 C 71.792969 40.992188 71.796875 41.011719 71.796875 41.023438 C 71.726562 44 68.808594 44.820312 66.238281 44.472656 C 64.035156 44.171875 60.960938 42.71875 58.792969 41.074219 C 58.570312 41.316406 58.339844 41.539062 58.101562 41.761719 C 60.175781 45.152344 65.058594 46.539062 66.644531 46.667969 C 66.664062 46.667969 66.683594 46.675781 66.695312 46.679688 C 66.707031 46.695312 66.71875 46.707031 66.726562 46.71875 C 66.738281 46.730469 66.746094 46.75 66.746094 46.769531 C 66.746094 46.78125 66.738281 46.800781 66.734375 46.8125 C 65.6875 48.609375 63.335938 49.207031 60.765625 47.980469 C 59.234375 47.25 57.339844 45.335938 56.03125 43.183594 C 55.734375 43.328125 55.421875 43.457031 55.105469 43.5625 C 55.910156 47.613281 59.953125 50.089844 60.660156 50.488281 C 60.675781 50.5 60.683594 50.507812 60.695312 50.519531 C 60.703125 50.535156 60.710938 50.546875 60.710938 50.558594 C 60.714844 50.578125 60.714844 50.589844 60.710938 50.601562 C 60.703125 50.617188 60.695312 50.628906 60.691406 50.640625 C 59.484375 51.988281 56.710938 52.019531 55.015625 50.070312 C 53.96875 48.871094 53.167969 46.640625 52.71875 43.953125 C 52.246094 43.957031 51.785156 44.015625 51.332031 44.117188 C 51.320312 42.871094 51.117188 41.640625 50.730469 40.460938 C 51.128906 40.453125 51.53125 40.414062 51.921875 40.34375 C 54.152344 39.953125 55.839844 38.144531 55.839844 35.964844 C 55.839844 34.714844 55.28125 33.585938 54.386719 32.773438 C 54.335938 32.734375 54.304688 32.691406 54.277344 32.632812 C 54.257812 32.582031 54.253906 32.519531 54.257812 32.460938 C 54.257812 32.40625 54.277344 32.347656 54.316406 32.296875 C 54.347656 32.253906 54.386719 32.207031 54.4375 32.175781 C 54.539062 32.117188 54.632812 32.0625 54.730469 32 C 62.519531 27.074219 69.613281 15.660156 70.371094 14.410156 C 70.382812 14.398438 70.394531 14.390625 70.410156 14.378906 C 70.421875 14.371094 70.433594 14.363281 70.453125 14.363281 C 70.464844 14.359375 70.484375 14.359375 70.496094 14.363281 C 70.515625 14.371094 70.527344 14.378906 70.542969 14.390625 C 72.933594 16.484375 73.167969 20.589844 70.648438 23.816406 C 68.984375 25.949219 65.488281 28.277344 61.902344 30.296875 C 61.953125 30.679688 61.992188 31.058594 62.011719 31.441406 C 69.386719 29.859375 74.070312 24.789062 74.8125 23.9375 C 74.828125 23.925781 74.839844 23.910156 74.859375 23.90625 C 74.871094 23.90625 74.890625 23.898438 74.910156 23.90625 C 74.929688 23.90625 74.945312 23.910156 74.960938 23.917969 C 74.972656 23.929688 74.984375 23.941406 74.992188 23.960938 C 76.355469 26.609375 75.175781 30.171875 72.484375 31.664062 C 70.121094 32.96875 66.414062 33.738281 61.859375 34.285156 C 61.808594 34.613281 61.75 34.9375 61.679688 35.261719 Z M 17.1875 37.902344 C 17.324219 38.195312 17.460938 38.484375 17.609375 38.773438 C 13.292969 41.234375 7.234375 40.972656 6.320312 40.917969 C 6.304688 40.917969 6.289062 40.917969 6.277344 40.921875 C 6.265625 40.929688 6.253906 40.9375 6.238281 40.949219 C 6.226562 40.953125 6.21875 40.96875 6.214844 40.980469 C 6.207031 40.992188 6.203125 41.011719 6.203125 41.023438 C 6.277344 44 9.191406 44.820312 11.761719 44.472656 C 13.964844 44.171875 17.035156 42.71875 19.207031 41.074219 C 19.429688 41.316406 19.660156 41.539062 19.898438 41.761719 C 17.816406 45.152344 12.941406 46.539062 11.355469 46.667969 C 11.335938 46.667969 11.316406 46.675781 11.304688 46.679688 C 11.292969 46.695312 11.28125 46.707031 11.273438 46.71875 C 11.261719 46.730469 11.261719 46.75 11.253906 46.769531 C 11.253906 46.78125 11.261719 46.800781 11.265625 46.8125 C 12.3125 48.609375 14.664062 49.207031 17.234375 47.980469 C 18.761719 47.25 20.660156 45.335938 21.96875 43.183594 C 22.265625 43.328125 22.578125 43.457031 22.894531 43.5625 C 22.089844 47.613281 18.046875 50.089844 17.335938 50.488281 C 17.324219 50.496094 17.316406 50.507812 17.304688 50.519531 C 17.296875 50.535156 17.289062 50.546875 17.289062 50.558594 C 17.285156 50.578125 17.285156 50.589844 17.289062 50.601562 C 17.289062 50.617188 17.304688 50.628906 17.308594 50.640625 C 18.515625 51.988281 21.289062 52.019531 22.984375 50.070312 C 24.03125 48.871094 24.832031 46.640625 25.28125 43.953125 C 25.726562 43.953125 26.382812 44.019531 27.074219 44.21875 C 27.074219 42.941406 27.277344 41.671875 27.675781 40.460938 C 27.085938 40.472656 26.539062 40.433594 26.078125 40.34375 C 23.839844 39.953125 22.160156 38.136719 22.160156 35.964844 C 22.160156 34.710938 22.71875 33.585938 23.613281 32.773438 C 23.65625 32.734375 23.695312 32.691406 23.714844 32.632812 C 23.738281 32.578125 23.746094 32.519531 23.738281 32.460938 C 23.734375 32.40625 23.714844 32.347656 23.683594 32.296875 C 23.652344 32.246094 23.605469 32.207031 23.554688 32.175781 C 23.460938 32.117188 23.367188 32.0625 23.269531 32 C 15.480469 27.074219 8.390625 15.664062 7.628906 14.414062 C 7.617188 14.402344 7.605469 14.390625 7.59375 14.378906 C 7.578125 14.371094 7.566406 14.363281 7.546875 14.363281 C 7.527344 14.359375 7.515625 14.359375 7.496094 14.363281 C 7.484375 14.371094 7.464844 14.378906 7.453125 14.390625 C 5.058594 16.484375 4.832031 20.589844 7.351562 23.816406 C 9.015625 25.941406 12.511719 28.277344 16.089844 30.296875 C 16.039062 30.679688 16.007812 31.054688 15.988281 31.433594 C 8.621094 29.859375 3.941406 24.800781 3.1875 23.9375 C 3.171875 23.925781 3.160156 23.917969 3.140625 23.910156 C 3.128906 23.90625 3.109375 23.898438 3.089844 23.90625 C 3.070312 23.90625 3.054688 23.910156 3.039062 23.917969 C 3.027344 23.929688 3.015625 23.941406 3.003906 23.960938 C 1.644531 26.609375 2.824219 30.171875 5.515625 31.664062 C 7.878906 32.96875 11.585938 33.738281 16.140625 34.277344 C 16.191406 34.609375 16.25 34.9375 16.320312 35.261719 C 9.476562 36.179688 4.132812 33.695312 3.210938 33.230469 C 3.199219 33.222656 3.179688 33.21875 3.160156 33.21875 C 3.148438 33.21875 3.128906 33.222656 3.109375 33.230469 C 3.097656 33.234375 3.085938 33.25 3.070312 33.269531 C 3.066406 33.28125 3.058594 33.292969 3.054688 33.3125 C 2.710938 36.148438 4.507812 38.421875 7.578125 38.929688 C 10.671875 39.4375 17.1875 37.902344 17.1875 37.902344 Z M 17.703125 21.09375 C 18.300781 18.402344 15.835938 19.8125 15.175781 20.3125 C 15.988281 18.089844 15.175781 17.246094 14.503906 16.535156 C 14.078125 16.089844 13.703125 15.703125 13.820312 15.070312 C 13.9375 14.359375 14.953125 14.210938 15.9375 14.074219 C 16.566406 13.988281 17.175781 13.902344 17.539062 13.671875 C 17.984375 13.394531 18.445312 12.90625 18.910156 12.410156 C 20.199219 11.050781 21.503906 9.667969 22.453125 12.632812 C 20.046875 14.859375 21.449219 18.140625 24.5 18.140625 C 24.5 18.140625 24.519531 18.625 24.496094 18.660156 C 20.84375 18.484375 19.570312 15.8125 20.234375 13.671875 C 20.355469 13.292969 16.496094 13.285156 16.496094 15.691406 C 16.496094 16.492188 17.0625 17.082031 17.632812 17.679688 C 18.21875 18.28125 18.808594 18.898438 18.808594 19.742188 C 18.808594 20.523438 17.964844 21.09375 17.703125 21.09375 Z M 30.683594 18.660156 L 25.960938 18.660156 L 25.957031 18.65625 C 25.890625 18.566406 25.125 17.519531 24.925781 16.992188 C 24.183594 15 25.136719 14.074219 26.527344 14.074219 L 28.324219 15.699219 L 30.121094 14.074219 C 31.507812 14.074219 32.460938 15 31.71875 16.992188 C 31.625 17.246094 31.394531 17.613281 31.179688 17.945312 C 32.855469 17.714844 34.996094 16.574219 35.464844 14.128906 C 35.464844 14.128906 34.226562 12.167969 33.914062 11.382812 C 32.796875 8.53125 34.226562 7.363281 36.308594 7.363281 L 39 10.519531 L 41.691406 7.363281 C 43.78125 7.363281 45.207031 8.53125 44.089844 11.382812 C 43.78125 12.167969 42.542969 14.128906 42.542969 14.128906 C 43.011719 16.574219 45.144531 17.714844 46.828125 17.945312 C 46.609375 17.613281 46.382812 17.246094 46.289062 16.992188 C 45.539062 15.003906 46.492188 14.074219 47.878906 14.074219 L 49.675781 15.699219 L 51.472656 14.074219 C 52.871094 14.074219 53.820312 15.003906 53.074219 16.992188 C 52.871094 17.542969 52.039062 18.660156 52.039062 18.660156 L 47.316406 18.660156 C 43.347656 18.660156 41.558594 16.230469 41.019531 14.128906 L 36.980469 14.128906 C 36.441406 16.230469 34.652344 18.660156 30.683594 18.660156 Z M 41.140625 45.609375 C 40.808594 45.929688 40.433594 46.148438 39.9375 46.089844 C 39.894531 46.085938 39.8125 46.140625 39.800781 46.179688 C 39.621094 46.75 39.457031 47.328125 39.285156 47.898438 L 39.253906 48.015625 C 39.253906 48.027344 39.265625 48.039062 39.265625 48.03125 C 39.527344 48.070312 39.71875 47.945312 39.890625 47.777344 C 39.964844 47.703125 40.046875 47.632812 40.128906 47.5625 C 40.167969 47.523438 40.210938 47.488281 40.257812 47.449219 C 40.953125 46.832031 41.660156 46.230469 42.503906 45.804688 C 43.390625 45.367188 44.1875 44.769531 44.851562 44.039062 C 45.011719 43.867188 45.085938 43.703125 44.984375 43.476562 C 44.890625 43.253906 44.707031 43.207031 44.492188 43.214844 C 44.441406 43.214844 44.382812 43.214844 44.324219 43.214844 C 44.300781 43.214844 44.269531 43.214844 44.238281 43.214844 C 43.953125 43.222656 43.660156 43.226562 43.375 43.222656 C 42.679688 43.195312 42.023438 43.0625 41.414062 42.738281 C 41.378906 42.726562 41.355469 42.707031 41.328125 42.6875 C 41.316406 42.679688 41.3125 42.667969 41.296875 42.664062 C 41.292969 42.648438 41.292969 42.636719 41.285156 42.625 C 41.285156 42.613281 41.285156 42.59375 41.292969 42.578125 C 41.296875 42.566406 41.304688 42.5625 41.3125 42.546875 L 41.449219 42.402344 C 41.597656 42.25 41.734375 42.105469 41.863281 41.957031 C 42.441406 41.304688 42.75 40.5625 42.5625 39.679688 C 42.53125 39.519531 42.472656 39.363281 42.414062 39.203125 C 42.390625 39.113281 42.359375 39.023438 42.332031 38.9375 C 42.242188 38.652344 42.421875 38.371094 42.71875 38.320312 C 42.765625 38.3125 42.808594 38.308594 42.859375 38.300781 C 42.9375 38.289062 43.011719 38.277344 43.085938 38.265625 C 43.34375 38.199219 43.488281 38.042969 43.460938 37.789062 C 43.417969 37.367188 43.375 36.945312 43.273438 36.539062 C 43.144531 36.03125 42.789062 35.808594 42.269531 35.84375 C 42.117188 35.859375 41.953125 35.882812 41.8125 35.945312 C 41.242188 36.214844 40.625 36.320312 40.007812 36.421875 C 39.914062 36.441406 39.8125 36.460938 39.71875 36.472656 C 39.335938 36.542969 38.957031 36.605469 38.574219 36.675781 L 38.195312 36.742188 C 38.167969 36.742188 38.148438 36.753906 38.136719 36.773438 C 38.125 36.789062 38.117188 36.808594 38.117188 36.835938 C 38.144531 37.203125 38.308594 37.476562 38.601562 37.679688 C 38.71875 37.757812 38.839844 37.820312 38.96875 37.890625 C 39.042969 37.933594 39.121094 37.976562 39.203125 38.023438 C 39.363281 38.117188 39.519531 38.210938 39.679688 38.3125 L 39.769531 38.367188 L 39.742188 38.542969 C 39.6875 38.5625 39.628906 38.574219 39.578125 38.59375 C 39.375 38.652344 39.171875 38.707031 38.96875 38.707031 C 38.109375 38.734375 37.25 38.738281 36.390625 38.738281 L 35.921875 38.738281 C 35.453125 38.738281 34.988281 38.738281 34.523438 38.738281 C 33.789062 38.738281 33.046875 38.738281 32.304688 38.746094 C 32.132812 38.746094 31.953125 38.777344 31.777344 38.808594 L 31.699219 38.820312 C 31.679688 38.828125 31.664062 38.835938 31.648438 38.855469 C 31.636719 38.867188 31.628906 38.886719 31.625 38.90625 C 31.625 38.921875 31.625 38.941406 31.636719 38.960938 C 31.648438 38.976562 31.664062 38.992188 31.679688 39 L 31.882812 39.089844 C 32.171875 39.214844 32.449219 39.335938 32.742188 39.449219 C 32.929688 39.527344 33.117188 39.496094 33.242188 39.292969 C 33.335938 39.132812 33.496094 39.089844 33.675781 39.113281 C 33.738281 39.121094 33.808594 39.132812 33.871094 39.152344 C 33.941406 39.160156 34.003906 39.179688 34.066406 39.183594 C 35.773438 39.40625 37.476562 39.628906 39.179688 39.851562 C 39.445312 39.890625 39.558594 39.992188 39.558594 40.257812 C 39.550781 41.039062 39.375 41.773438 38.777344 42.328125 C 37.554688 43.46875 36.683594 44.832031 36.097656 46.390625 C 36.046875 46.523438 35.972656 46.660156 35.871094 46.738281 C 35.636719 46.921875 35.394531 47.085938 35.152344 47.25 C 35.019531 47.339844 34.886719 47.4375 34.757812 47.523438 C 34.710938 47.5625 34.652344 47.601562 34.601562 47.632812 C 34.449219 47.734375 34.296875 47.835938 34.183594 47.960938 C 33.898438 48.28125 33.625 48.605469 33.34375 48.921875 C 33.078125 49.238281 32.8125 49.550781 32.539062 49.855469 C 32.410156 49.992188 32.238281 50.09375 32.054688 50.140625 C 31.832031 50.183594 31.71875 50.273438 31.707031 50.488281 C 31.695312 50.65625 31.679688 50.8125 31.675781 50.976562 C 31.664062 51.210938 31.644531 51.453125 31.625 51.6875 C 31.59375 52.007812 31.710938 52.246094 31.933594 52.476562 C 31.941406 52.488281 31.953125 52.496094 31.972656 52.5 C 31.984375 52.507812 32 52.507812 32.011719 52.507812 C 32.03125 52.5 32.042969 52.5 32.054688 52.488281 C 32.070312 52.484375 32.074219 52.46875 32.082031 52.457031 L 32.144531 52.34375 C 32.234375 52.183594 32.320312 52.03125 32.386719 51.867188 C 32.449219 51.703125 32.492188 51.53125 32.539062 51.351562 C 32.558594 51.269531 32.578125 51.179688 32.601562 51.097656 C 32.726562 50.640625 32.988281 50.230469 33.355469 49.917969 C 33.914062 49.429688 34.539062 49.046875 35.164062 48.667969 L 35.179688 48.660156 C 36.214844 48.039062 37.242188 47.390625 38.085938 46.515625 C 38.351562 46.234375 38.59375 45.9375 38.835938 45.640625 L 38.835938 45.632812 C 38.917969 45.539062 38.992188 45.4375 39.078125 45.335938 C 39.355469 44.992188 39.703125 44.796875 40.160156 44.808594 C 40.453125 44.8125 40.746094 44.8125 41.042969 44.8125 C 41.234375 44.8125 41.425781 44.8125 41.617188 44.820312 C 41.640625 44.820312 41.664062 44.820312 41.691406 44.828125 C 41.710938 44.832031 41.722656 44.839844 41.734375 44.847656 C 41.75 44.859375 41.761719 44.871094 41.765625 44.890625 C 41.765625 44.902344 41.773438 44.921875 41.765625 44.941406 C 41.761719 44.953125 41.753906 44.972656 41.742188 44.980469 C 41.683594 45.042969 41.632812 45.101562 41.578125 45.15625 C 41.425781 45.316406 41.285156 45.460938 41.140625 45.609375 Z M 43.082031 42.351562 L 43.003906 42.34375 C 42.992188 42.339844 42.972656 42.339844 42.960938 42.328125 C 42.953125 42.320312 42.941406 42.308594 42.9375 42.292969 C 42.929688 42.28125 42.921875 42.261719 42.921875 42.25 C 42.921875 42.238281 42.929688 42.21875 42.9375 42.207031 C 43.460938 41.296875 43.894531 40.390625 43.578125 39.292969 C 43.578125 39.28125 43.578125 39.265625 43.578125 39.253906 C 43.578125 39.242188 43.582031 39.226562 43.589844 39.222656 C 43.59375 39.210938 43.601562 39.195312 43.613281 39.191406 C 43.628906 39.183594 43.640625 39.179688 43.652344 39.179688 C 43.722656 39.160156 43.796875 39.144531 43.882812 39.144531 C 44.066406 39.144531 44.238281 39.09375 44.3125 38.921875 C 44.597656 38.257812 44.820312 37.570312 44.5625 36.835938 L 44.453125 36.53125 C 44.390625 36.351562 44.324219 36.175781 44.261719 35.996094 C 44.257812 35.984375 44.257812 35.964844 44.25 35.953125 C 44.25 35.941406 44.25 35.929688 44.257812 35.914062 C 44.261719 35.902344 44.269531 35.890625 44.273438 35.882812 C 44.289062 35.871094 44.292969 35.863281 44.304688 35.859375 C 44.320312 35.851562 44.332031 35.851562 44.34375 35.851562 C 44.441406 35.851562 44.535156 35.851562 44.628906 35.851562 C 45.003906 35.84375 45.367188 35.84375 45.734375 35.863281 C 45.828125 35.871094 45.996094 36.015625 46.015625 36.125 C 46.109375 36.613281 46.179688 37.109375 46.25 37.601562 L 46.300781 37.925781 C 46.332031 38.128906 46.210938 38.238281 46.027344 38.277344 C 45.996094 38.28125 45.96875 38.289062 45.9375 38.289062 C 45.273438 38.308594 44.96875 38.613281 45.152344 39.242188 C 45.410156 40.148438 45.136719 40.910156 44.675781 41.652344 C 44.636719 41.71875 44.597656 41.78125 44.566406 41.84375 C 44.359375 42.300781 43.988281 42.441406 43.519531 42.402344 C 43.378906 42.390625 43.234375 42.371094 43.082031 42.351562 Z M 42.167969 48.726562 C 42.414062 48.367188 42.667969 48.007812 42.917969 47.644531 C 43.152344 47.304688 43.429688 47.003906 43.792969 46.796875 C 44.359375 46.464844 44.921875 46.132812 45.492188 45.804688 C 45.742188 45.664062 45.988281 45.523438 46.234375 45.390625 C 46.625 45.175781 47.015625 44.953125 47.398438 44.726562 C 47.714844 44.542969 47.875 44.242188 47.859375 43.867188 C 47.859375 43.425781 47.824219 43.378906 47.398438 43.273438 C 47.320312 43.253906 47.25 43.226562 47.175781 43.203125 C 47.132812 43.183594 47.085938 43.171875 47.035156 43.15625 L 46.800781 43.082031 C 46.496094 42.984375 46.191406 42.890625 45.886719 42.800781 C 45.855469 42.796875 45.824219 42.796875 45.792969 42.808594 C 45.773438 42.816406 45.753906 42.828125 45.742188 42.847656 C 45.726562 42.867188 45.722656 42.890625 45.726562 42.910156 C 45.734375 42.941406 45.746094 42.972656 45.761719 43 C 45.8125 43.0625 45.867188 43.121094 45.917969 43.175781 C 45.976562 43.242188 46.03125 43.296875 46.089844 43.367188 C 46.390625 43.742188 46.332031 44.15625 45.9375 44.421875 C 45.773438 44.527344 45.609375 44.636719 45.441406 44.746094 C 45.289062 44.839844 45.136719 44.941406 44.984375 45.042969 C 44.054688 45.671875 43.121094 46.304688 42.191406 46.945312 C 42.109375 47.003906 42.046875 47.113281 42.023438 47.214844 C 41.945312 47.492188 41.882812 47.773438 41.832031 48.058594 L 41.824219 48.078125 C 41.785156 48.285156 41.742188 48.496094 41.867188 48.707031 C 41.976562 48.890625 42.039062 48.902344 42.167969 48.726562 Z M 38.238281 47.488281 C 38.269531 47.472656 38.300781 47.460938 38.339844 47.46875 C 38.367188 47.460938 38.382812 47.472656 38.402344 47.488281 C 38.421875 47.507812 38.433594 47.523438 38.433594 47.550781 C 38.441406 47.574219 38.433594 47.609375 38.429688 47.640625 C 38.347656 47.894531 38.257812 48.140625 38.167969 48.394531 C 38.023438 48.789062 37.761719 49.0625 37.382812 49.257812 C 36.773438 49.574219 36.179688 49.925781 35.597656 50.285156 C 35.222656 50.519531 35.078125 50.921875 34.976562 51.332031 C 34.90625 51.605469 34.828125 51.875 34.753906 52.144531 C 34.734375 52.210938 34.710938 52.273438 34.671875 52.324219 C 34.582031 52.445312 34.40625 52.539062 34.285156 52.527344 C 34.167969 52.519531 34.046875 52.363281 33.980469 52.242188 C 33.941406 52.164062 33.929688 52.070312 33.914062 51.980469 C 33.914062 51.941406 33.910156 51.90625 33.902344 51.875 C 33.902344 51.859375 33.902344 51.855469 33.902344 51.839844 C 34.015625 51.054688 34.316406 50.398438 35.007812 49.929688 C 35.605469 49.523438 36.175781 49.085938 36.742188 48.640625 C 36.957031 48.476562 37.171875 48.3125 37.386719 48.148438 C 37.527344 48.046875 37.660156 47.945312 37.792969 47.835938 C 37.941406 47.714844 38.085938 47.601562 38.238281 47.488281 Z M 38.238281 47.488281 "/>
</g>
</svg>
